<svg version="1.1" viewBox="0.0 0.0 448.21259842519686 158.48293963254594" fill="none" stroke="none" stroke-linecap="square" stroke-miterlimit="10" xmlns:xlink="http://www.w3.org/1999/xlink" xmlns="http://www.w3.org/2000/svg"><clipPath id="p.0"><path d="m0 0l448.2126 0l0 158.48294l-448.2126 0l0 -158.48294z" clip-rule="nonzero"/></clipPath><g clip-path="url(#p.0)"><path fill="#000000" fill-opacity="0.0" d="m0 0l448.2126 0l0 158.48294l-448.2126 0z" fill-rule="evenodd"/><path fill="#000000" fill-opacity="0.0" d="m0 0l31.181103 0l0 42.015747l-31.181103 0z" fill-rule="evenodd"/><path fill="#000000" d="m9.359375 26.919998l0 -1.328125l6.15625 -7.078125q-1.046875 0.0625 -1.84375 0.0625l-3.9375 0l0 -1.328125l7.90625 0l0 1.078125l-5.25 6.140625l-1.0 1.125q1.09375 -0.078125 2.0625 -0.078125l4.46875 0l0 1.40625l-8.5625 0z" fill-rule="nonzero"/><path fill="#efefef" d="m80.72835 2.0301838l37.95275 0l0 37.95276l-37.95275 0z" fill-rule="evenodd"/><path stroke="#000000" stroke-width="1.0" stroke-linejoin="round" stroke-linecap="butt" d="m80.72835 2.0301838l37.95275 0l0 37.95276l-37.95275 0z" fill-rule="evenodd"/><path fill="#000000" d="m95.562996 21.006561l0 0c0 -2.2874146 1.8543167 -4.1417313 4.1417313 -4.1417313l0 0c1.0984497 0 2.1519165 0.4363594 2.9286423 1.2130852c0.77672577 0.77672577 1.213089 1.8301907 1.213089 2.928646l0 0c0 2.2874165 -1.8543167 4.141733 -4.1417313 4.141733l0 0c-2.2874146 0 -4.1417313 -1.8543167 -4.1417313 -4.141733z" fill-rule="evenodd"/><path stroke="#000000" stroke-width="1.0" stroke-linejoin="round" stroke-linecap="butt" d="m95.562996 21.006561l0 0c0 -2.2874146 1.8543167 -4.1417313 4.1417313 -4.1417313l0 0c1.0984497 0 2.1519165 0.4363594 2.9286423 1.2130852c0.77672577 0.77672577 1.213089 1.8301907 1.213089 2.928646l0 0c0 2.2874165 -1.8543167 4.141733 -4.1417313 4.141733l0 0c-2.2874146 0 -4.1417313 -1.8543167 -4.1417313 -4.141733z" fill-rule="evenodd"/><path fill="#efefef" d="m118.6811 2.0301838l37.952766 0l0 37.95276l-37.952766 0z" fill-rule="evenodd"/><path stroke="#000000" stroke-width="1.0" stroke-linejoin="round" stroke-linecap="butt" d="m118.6811 2.0301838l37.952766 0l0 37.95276l-37.952766 0z" fill-rule="evenodd"/><path fill="#000000" d="m133.51575 21.006561l0 0c0 -2.2874146 1.8543243 -4.1417313 4.141739 -4.1417313l0 0c1.0984497 0 2.1519165 0.4363594 2.9286346 1.2130852c0.7767334 0.77672577 1.213089 1.8301907 1.213089 2.928646l0 0c0 2.2874165 -1.8543091 4.141733 -4.1417236 4.141733l0 0c-2.2874146 0 -4.141739 -1.8543167 -4.141739 -4.141733z" fill-rule="evenodd"/><path stroke="#000000" stroke-width="1.0" stroke-linejoin="round" stroke-linecap="butt" d="m133.51575 21.006561l0 0c0 -2.2874146 1.8543243 -4.1417313 4.141739 -4.1417313l0 0c1.0984497 0 2.1519165 0.4363594 2.9286346 1.2130852c0.7767334 0.77672577 1.213089 1.8301907 1.213089 2.928646l0 0c0 2.2874165 -1.8543091 4.141733 -4.1417236 4.141733l0 0c-2.2874146 0 -4.141739 -1.8543167 -4.141739 -4.141733z" fill-rule="evenodd"/><path fill="#efefef" d="m206.18242 2.0301838l37.95276 0l0 37.95276l-37.95276 0z" fill-rule="evenodd"/><path stroke="#000000" stroke-width="1.0" stroke-linejoin="round" stroke-linecap="butt" d="m206.18242 2.0301838l37.95276 0l0 37.95276l-37.95276 0z" fill-rule="evenodd"/><path fill="#000000" d="m221.01706 21.006561l0 0c0 -2.2874146 1.8543243 -4.1417313 4.141739 -4.1417313l0 0c1.0984497 0 2.1519165 0.4363594 2.9286346 1.2130852c0.7767334 0.77672577 1.213089 1.8301907 1.213089 2.928646l0 0c0 2.2874165 -1.8543091 4.141733 -4.1417236 4.141733l0 0c-2.2874146 0 -4.141739 -1.8543167 -4.141739 -4.141733z" fill-rule="evenodd"/><path stroke="#000000" stroke-width="1.0" stroke-linejoin="round" stroke-linecap="butt" d="m221.01706 21.006561l0 0c0 -2.2874146 1.8543243 -4.1417313 4.141739 -4.1417313l0 0c1.0984497 0 2.1519165 0.4363594 2.9286346 1.2130852c0.7767334 0.77672577 1.213089 1.8301907 1.213089 2.928646l0 0c0 2.2874165 -1.8543091 4.141733 -4.1417236 4.141733l0 0c-2.2874146 0 -4.141739 -1.8543167 -4.141739 -4.141733z" fill-rule="evenodd"/><path fill="#000000" fill-opacity="0.0" d="m83.80658 74.461945l31.181107 0l0 42.015747l-31.181107 0z" fill-rule="evenodd"/><path fill="#000000" d="m100.353455 100.19444q-0.921875 0.765625 -1.765625 1.09375q-0.828125 0.3125 -1.796875 0.3125q-1.59375 0 -2.453125 -0.78125q-0.859375 -0.78125 -0.859375 -1.984375q0 -0.71875 0.328125 -1.296875q0.328125 -0.59375 0.84375 -0.9375q0.53125 -0.359375 1.1875 -0.546875q0.46875 -0.125 1.453125 -0.25q1.984375 -0.234375 2.921875 -0.5625q0.015625 -0.34375 0.015625 -0.421875q0 -1.0 -0.46875 -1.421875q-0.625 -0.546875 -1.875 -0.546875q-1.15625 0 -1.703125 0.40625q-0.546875 0.40625 -0.8125 1.421875l-1.609375 -0.21875q0.21875 -1.015625 0.71875 -1.640625q0.5 -0.640625 1.453125 -0.984375q0.953125 -0.34375 2.1875 -0.34375q1.25 0 2.015625 0.296875q0.78125 0.28125 1.140625 0.734375q0.375 0.4375 0.515625 1.109375q0.078125 0.421875 0.078125 1.515625l0 2.1875q0 2.28125 0.109375 2.890625q0.109375 0.59375 0.40625 1.15625l-1.703125 0q-0.265625 -0.515625 -0.328125 -1.1875zm-0.140625 -3.671875q-0.890625 0.375 -2.671875 0.625q-1.015625 0.140625 -1.4375 0.328125q-0.421875 0.1875 -0.65625 0.53125q-0.21875 0.34375 -0.21875 0.78125q0 0.65625 0.5 1.09375q0.5 0.4375 1.453125 0.4375q0.9375 0 1.671875 -0.40625q0.75 -0.421875 1.09375 -1.140625q0.265625 -0.5625 0.265625 -1.640625l0 -0.609375z" fill-rule="nonzero"/><path fill="#000000" fill-opacity="0.0" d="m209.77428 74.461945l31.181107 0l0 42.015747l-31.181107 0z" fill-rule="evenodd"/><path fill="#000000" d="m221.50865 101.38194l-1.515625 0l0 -13.359375l1.640625 0l0 4.765625q1.046875 -1.296875 2.65625 -1.296875q0.890625 0 1.6875 0.359375q0.796875 0.359375 1.3125 1.015625q0.515625 0.640625 0.796875 1.5625q0.296875 0.921875 0.296875 1.96875q0 2.484375 -1.234375 3.84375q-1.21875 1.359375 -2.953125 1.359375q-1.703125 0 -2.6875 -1.4375l0 1.21875zm-0.015625 -4.90625q0 1.734375 0.484375 2.515625q0.765625 1.265625 2.09375 1.265625q1.078125 0 1.859375 -0.9375q0.78125 -0.9375 0.78125 -2.78125q0 -1.890625 -0.75 -2.796875q-0.75 -0.90625 -1.828125 -0.90625q-1.0625 0 -1.859375 0.9375q-0.78125 0.9375 -0.78125 2.703125z" fill-rule="nonzero"/><path fill="#000000" fill-opacity="0.0" d="m31.181103 21.007874l49.54331 0" fill-rule="evenodd"/><path stroke="#000000" stroke-width="1.0" stroke-linejoin="round" stroke-linecap="butt" d="m31.181103 21.007874l43.54331 0" fill-rule="evenodd"/><path fill="#000000" stroke="#000000" stroke-width="1.0" stroke-linecap="butt" d="m74.72441 22.659607l4.5380936 -1.6517334l-4.5380936 -1.6517315z" fill-rule="evenodd"/><path fill="#000000" fill-opacity="0.0" d="m141.79921 21.006561l64.37796 0" fill-rule="evenodd"/><path stroke="#000000" stroke-width="1.0" stroke-linejoin="round" stroke-linecap="butt" d="m141.79921 21.006561l58.37796 0" fill-rule="evenodd"/><path fill="#000000" stroke="#000000" stroke-width="1.0" stroke-linecap="butt" d="m200.17717 22.658295l4.538086 -1.6517334l-4.538086 -1.6517315z" fill-rule="evenodd"/><path fill="#000000" fill-opacity="0.0" d="m99.70473 25.148294l-0.3149643 49.322838" fill-rule="evenodd"/><path stroke="#000000" stroke-width="1.0" stroke-linejoin="round" stroke-linecap="butt" d="m99.70473 25.148294l-0.27664948 43.32296" fill-rule="evenodd"/><path fill="#000000" stroke="#000000" stroke-width="1.0" stroke-linecap="butt" d="m97.776375 68.4607l1.6227264 4.5485535l1.6806717 -4.527458z" fill-rule="evenodd"/><path fill="#000000" fill-opacity="0.0" d="m225.1588 25.148294l0.22047424 49.322838" fill-rule="evenodd"/><path stroke="#000000" stroke-width="1.0" stroke-linejoin="round" stroke-linecap="butt" d="m225.1588 25.148294l0.19364929 43.3229" fill-rule="evenodd"/><path fill="#000000" stroke="#000000" stroke-width="1.0" stroke-linecap="butt" d="m223.70073 68.47857l1.6719971 4.53067l1.6314392 -4.545433z" fill-rule="evenodd"/><path fill="#efefef" d="m244.14043 2.0301838l37.952744 0l0 37.95276l-37.952744 0z" fill-rule="evenodd"/><path stroke="#000000" stroke-width="1.0" stroke-linejoin="round" stroke-linecap="butt" d="m244.14043 2.0301838l37.952744 0l0 37.95276l-37.952744 0z" fill-rule="evenodd"/><path fill="#000000" d="m258.97507 21.006561l0 0c0 -2.2874146 1.8543091 -4.1417313 4.1417236 -4.1417313l0 0c1.0984497 0 2.1519165 0.4363594 2.92865 1.2130852c0.7767334 0.77672577 1.2131042 1.8301907 1.2131042 2.928646l0 0c0 2.2874165 -1.8543396 4.141733 -4.141754 4.141733l0 0c-2.2874146 0 -4.1417236 -1.8543167 -4.1417236 -4.141733z" fill-rule="evenodd"/><path stroke="#000000" stroke-width="1.0" stroke-linejoin="round" stroke-linecap="butt" d="m258.97507 21.006561l0 0c0 -2.2874146 1.8543091 -4.1417313 4.1417236 -4.1417313l0 0c1.0984497 0 2.1519165 0.4363594 2.92865 1.2130852c0.7767334 0.77672577 1.2131042 1.8301907 1.2131042 2.928646l0 0c0 2.2874165 -1.8543396 4.141733 -4.141754 4.141733l0 0c-2.2874146 0 -4.1417236 -1.8543167 -4.1417236 -4.141733z" fill-rule="evenodd"/><path fill="#000000" fill-opacity="0.0" d="m267.25854 21.006561l69.13385 0" fill-rule="evenodd"/><path stroke="#000000" stroke-width="1.0" stroke-linejoin="round" stroke-linecap="butt" d="m267.25854 21.006561l63.13385 0" fill-rule="evenodd"/><path fill="#000000" stroke="#000000" stroke-width="1.0" stroke-linecap="butt" d="m330.3924 22.658295l4.538086 -1.6517334l-4.538086 -1.6517315z" fill-rule="evenodd"/><path fill="#efefef" d="m335.74146 2.0301838l37.95276 0l0 37.95276l-37.95276 0z" fill-rule="evenodd"/><path stroke="#000000" stroke-width="1.0" stroke-linejoin="round" stroke-linecap="butt" d="m335.74146 2.0301838l37.95276 0l0 37.95276l-37.95276 0z" fill-rule="evenodd"/><path fill="#000000" d="m350.5761 21.006561l0 0c0 -2.2874146 1.8543091 -4.1417313 4.1417236 -4.1417313l0 0c1.0984802 0 2.151947 0.4363594 2.92865 1.2130852c0.7767334 0.77672577 1.2131042 1.8301907 1.2131042 2.928646l0 0c0 2.2874165 -1.8543396 4.141733 -4.141754 4.141733l0 0c-2.2874146 0 -4.1417236 -1.8543167 -4.1417236 -4.141733z" fill-rule="evenodd"/><path stroke="#000000" stroke-width="1.0" stroke-linejoin="round" stroke-linecap="butt" d="m350.5761 21.006561l0 0c0 -2.2874146 1.8543091 -4.1417313 4.1417236 -4.1417313l0 0c1.0984802 0 2.151947 0.4363594 2.92865 1.2130852c0.7767334 0.77672577 1.2131042 1.8301907 1.2131042 2.928646l0 0c0 2.2874165 -1.8543396 4.141733 -4.141754 4.141733l0 0c-2.2874146 0 -4.1417236 -1.8543167 -4.1417236 -4.141733z" fill-rule="evenodd"/><path fill="#000000" fill-opacity="0.0" d="m339.33334 74.461945l31.181091 0l0 42.015747l-31.181091 0z" fill-rule="evenodd"/><path fill="#000000" d="m355.88022 97.83507l1.609375 0.21875q-0.265625 1.65625 -1.359375 2.609375q-1.078125 0.9375 -2.671875 0.9375q-1.984375 0 -3.1875 -1.296875q-1.203125 -1.296875 -1.203125 -3.71875q0 -1.578125 0.515625 -2.75q0.515625 -1.171875 1.578125 -1.75q1.0625 -0.59375 2.3125 -0.59375q1.578125 0 2.578125 0.796875q1.0 0.796875 1.28125 2.265625l-1.59375 0.234375q-0.234375 -0.96875 -0.8125 -1.453125q-0.578125 -0.5 -1.390625 -0.5q-1.234375 0 -2.015625 0.890625q-0.78125 0.890625 -0.78125 2.8125q0 1.953125 0.75 2.84375q0.75 0.875 1.953125 0.875q0.96875 0 1.609375 -0.59375q0.65625 -0.59375 0.828125 -1.828125z" fill-rule="nonzero"/><path fill="#000000" fill-opacity="0.0" d="m354.71783 25.148294l0.2204895 49.322838" fill-rule="evenodd"/><path stroke="#000000" stroke-width="1.0" stroke-linejoin="round" stroke-linecap="butt" d="m354.71783 25.148294l0.19366455 43.3229" fill-rule="evenodd"/><path fill="#000000" stroke="#000000" stroke-width="1.0" stroke-linecap="butt" d="m353.2598 68.47857l1.6719971 4.53067l1.6314087 -4.545433z" fill-rule="evenodd"/><path fill="#efefef" d="m373.69946 2.0301838l37.95276 0l0 37.95276l-37.95276 0z" fill-rule="evenodd"/><path stroke="#000000" stroke-width="1.0" stroke-linejoin="round" stroke-linecap="butt" d="m373.69946 2.0301838l37.95276 0l0 37.95276l-37.95276 0z" fill-rule="evenodd"/><path fill="#000000" d="m388.53412 21.006561l0 0c0 -2.2874146 1.8543091 -4.1417313 4.1417236 -4.1417313l0 0c1.0984802 0 2.151947 0.4363594 2.92865 1.2130852c0.7767334 0.77672577 1.2131042 1.8301907 1.2131042 2.928646l0 0c0 2.2874165 -1.8543396 4.141733 -4.141754 4.141733l0 0c-2.2874146 0 -4.1417236 -1.8543167 -4.1417236 -4.141733z" fill-rule="evenodd"/><path stroke="#000000" stroke-width="1.0" stroke-linejoin="round" stroke-linecap="butt" d="m388.53412 21.006561l0 0c0 -2.2874146 1.8543091 -4.1417313 4.1417236 -4.1417313l0 0c1.0984802 0 2.151947 0.4363594 2.92865 1.2130852c0.7767334 0.77672577 1.2131042 1.8301907 1.2131042 2.928646l0 0c0 2.2874165 -1.8543396 4.141733 -4.141754 4.141733l0 0c-2.2874146 0 -4.1417236 -1.8543167 -4.1417236 -4.141733z" fill-rule="evenodd"/><path fill="#000000" fill-opacity="0.0" d="m396.8176 21.006561l41.921234 0l0 124.34645" fill-rule="evenodd"/><path stroke="#000000" stroke-width="1.0" stroke-linejoin="round" stroke-linecap="butt" d="m396.8176 21.006561l41.921234 0l0 118.34645" fill-rule="evenodd"/><path fill="#000000" stroke="#000000" stroke-width="1.0" stroke-linecap="butt" d="m437.08713 139.35301l1.6517029 4.538101l1.6517334 -4.538101z" fill-rule="evenodd"/><path fill="#efefef" d="m434.88956 149.20998l0 0c0 -2.1221619 1.7203674 -3.8425293 3.8425293 -3.8425293l0 0c1.019104 0 1.99646 0.4048462 2.7170715 1.1254578c0.7206116 0.7206116 1.1254578 1.6979675 1.1254578 2.7170715l0 0c0 2.1221619 -1.7203674 3.842514 -3.8425293 3.842514l0 0c-2.1221619 0 -3.8425293 -1.7203522 -3.8425293 -3.842514z" fill-rule="evenodd"/><path stroke="#000000" stroke-width="1.0" stroke-linejoin="round" stroke-linecap="butt" d="m434.88956 149.20998l0 0c0 -2.1221619 1.7203674 -3.8425293 3.8425293 -3.8425293l0 0c1.019104 0 1.99646 0.4048462 2.7170715 1.1254578c0.7206116 0.7206116 1.1254578 1.6979675 1.1254578 2.7170715l0 0c0 2.1221619 -1.7203674 3.842514 -3.8425293 3.842514l0 0c-2.1221619 0 -3.8425293 -1.7203522 -3.8425293 -3.842514z" fill-rule="evenodd"/><path fill="#efefef" d="m55.50656 149.20998l0 0c0 -2.1221619 1.720356 -3.8425293 3.8425217 -3.8425293l0 0c1.0190964 0 1.9964561 0.4048462 2.7170715 1.1254578c0.7206116 0.7206116 1.1254463 1.6979675 1.1254463 2.7170715l0 0c0 2.1221619 -1.720356 3.842514 -3.8425179 3.842514l0 0c-2.1221657 0 -3.8425217 -1.7203522 -3.8425217 -3.842514z" fill-rule="evenodd"/><path stroke="#000000" stroke-width="1.0" stroke-linejoin="round" stroke-linecap="butt" d="m55.50656 149.20998l0 0c0 -2.1221619 1.720356 -3.8425293 3.8425217 -3.8425293l0 0c1.0190964 0 1.9964561 0.4048462 2.7170715 1.1254578c0.7206116 0.7206116 1.1254463 1.6979675 1.1254463 2.7170715l0 0c0 2.1221619 -1.720356 3.842514 -3.8425179 3.842514l0 0c-2.1221657 0 -3.8425217 -1.7203522 -3.8425217 -3.842514z" fill-rule="evenodd"/><path fill="#000000" fill-opacity="0.0" d="m434.88956 149.20998l-371.68503 0" fill-rule="evenodd"/><path stroke="#000000" stroke-width="1.0" stroke-linejoin="round" stroke-linecap="butt" d="m434.88956 149.20998l-365.68503 0" fill-rule="evenodd"/><path fill="#000000" stroke="#000000" stroke-width="1.0" stroke-linecap="butt" d="m69.20452 147.55824l-4.5380936 1.6517334l4.5380936 1.6517334z" fill-rule="evenodd"/><path fill="#000000" fill-opacity="0.0" d="m59.349083 145.36745l0 -124.34645l21.385826 0" fill-rule="evenodd"/><path stroke="#000000" stroke-width="1.0" stroke-linejoin="round" stroke-linecap="butt" d="m59.349083 145.36745l0 -124.34645l15.385826 0" fill-rule="evenodd"/><path fill="#000000" stroke="#000000" stroke-width="1.0" stroke-linecap="butt" d="m74.73491 22.67273l4.5380936 -1.6517315l-4.5380936 -1.6517334z" fill-rule="evenodd"/></g></svg>